<svg width="23" height="20" viewBox="0 0 23 20" fill="none" xmlns="http://www.w3.org/2000/svg">
<path d="M13.1689 8.03343L13.1925 8.1H13.2631H22.6556V9.18379L20.4906 17.4828C20.1193 18.906 18.8328 19.9 17.362 19.9H5.3936C3.92279 19.9 2.63621 18.906 2.26498 17.4828L0.1 9.18379V8.1H6.85333L6.89337 7.90836L0.753628 5.226L1.20738 4.18745L9.56299 7.8379L9.64858 7.8753L9.69172 7.79245C9.9127 7.36809 10.2889 7.03716 10.7445 6.87558L10.8111 6.85197V6.78133V0.1H11.9444V6.78133V6.85197L12.011 6.87558C12.5499 7.06671 12.9777 7.49454 13.1689 8.03343ZM1.4136 9.23333H1.28417L1.31684 9.35858L3.36159 17.1968C3.60273 18.1211 4.43832 18.7667 5.3936 18.7667H17.362C18.3172 18.7667 19.1528 18.1211 19.394 17.1968L21.4387 9.35858L21.4714 9.23333H21.342H13.2631H13.1925L13.1689 9.29991C12.9073 10.0373 12.2031 10.5667 11.3778 10.5667C10.5525 10.5667 9.84823 10.0373 9.58669 9.29991L9.56308 9.23333H9.49244H1.4136ZM12.1444 8.66667C12.1444 8.24384 11.8006 7.9 11.3778 7.9C10.9549 7.9 10.6111 8.24384 10.6111 8.66667C10.6111 9.08949 10.9549 9.43333 11.3778 9.43333C11.8006 9.43333 12.1444 9.08949 12.1444 8.66667Z" fill="#CFF0D1" stroke="#0B0B0B" stroke-width="0.2"/>
</svg>

