<svg width="23" height="22" viewBox="0 0 23 22" fill="none" xmlns="http://www.w3.org/2000/svg">
<path d="M18.7223 20.009V12.239L19.0728 12.5894C19.7302 13.2469 20.796 13.2469 21.4535 12.5894C22.1109 11.932 22.1109 10.8662 21.4535 10.2088C21.4535 10.2088 21.4535 10.2088 21.4535 10.2088L12.5886 1.34145L12.5883 1.34116C11.9301 0.686279 10.8664 0.686279 10.2082 1.34116L10.2079 1.34145L1.34306 10.2088C1.34305 10.2088 1.34305 10.2088 1.34304 10.2088C0.685648 10.8662 0.685653 11.932 1.34306 12.5894C2.00046 13.2469 3.06634 13.2469 3.72375 12.5894L3.72418 12.589L4.06923 12.2411V20.004H4.06907L4.0694 20.011C4.09994 20.6628 4.64975 21.1682 5.30144 21.1442H8.23948C8.45904 21.1442 8.63704 20.9662 8.63704 20.7467V15.9293C8.63704 15.9293 8.63704 15.9293 8.63704 15.9293C8.63722 14.4044 9.8736 13.1683 11.3986 13.1685C12.9233 13.1686 14.1593 14.4046 14.1595 15.9293C14.1595 15.9293 14.1595 15.9293 14.1595 15.9293V20.7516C14.1595 20.9712 14.3375 21.1492 14.557 21.1492H17.4901C18.1418 21.1731 18.6916 20.6678 18.7222 20.016L18.7223 20.016V20.009ZM17.4979 20.3491H14.9546V15.9293C14.9546 13.9652 13.3624 12.373 11.3983 12.373C9.43414 12.373 7.84193 13.9652 7.84193 15.9293V20.3541H5.30104V20.3537L5.29022 20.3545C5.07673 20.3699 4.88989 20.2135 4.86681 20.0015V11.4439L11.4007 4.90999L17.9346 11.4439L17.9322 19.9965C17.9091 20.2086 17.7223 20.365 17.5088 20.3495L17.5088 20.3491H17.4979ZM20.8914 12.0267L20.8597 12.0589C20.5108 12.3713 19.9744 12.3603 19.6387 12.0256L18.6091 10.9984L18.6089 10.9983L11.6776 4.06698L11.6773 4.06668C11.5222 3.91252 11.2718 3.91252 11.1167 4.06668L11.1164 4.06698L4.18496 10.9984L3.15762 12.0258C2.81083 12.3726 2.24855 12.3726 1.90176 12.0258C1.55497 11.679 1.55497 11.1167 1.90176 10.7699L1.90179 10.7699L10.7612 1.90551C10.7613 1.90545 10.7614 1.90538 10.7614 1.90532C11.1092 1.56051 11.67 1.56051 12.0177 1.90532C12.0178 1.90538 12.0179 1.90545 12.0179 1.90551L20.8824 10.7699L20.8829 10.7705C21.2313 11.1154 21.2351 11.6772 20.8914 12.0267Z" fill="#CFF0D1" stroke="#CFF0D1" stroke-width="0.3"/>
</svg>

