<svg width="20" height="20" viewBox="0 0 20 20" fill="none" xmlns="http://www.w3.org/2000/svg">
<path d="M0.390625 8.04688H6.09375V10C6.09375 10.2157 6.26867 10.3906 6.48438 10.3906C6.70008 10.3906 6.875 10.2157 6.875 10V8.04688H7.65625C7.87195 8.04688 8.04688 7.87199 8.04688 7.65625V3.24219H9.60938V5.19531C9.60938 5.41105 9.7843 5.58594 10 5.58594C10.2157 5.58594 10.3906 5.41105 10.3906 5.19531V2.85156C10.3906 2.63582 10.2157 2.46094 10 2.46094H8.04688V0.390625C8.04688 0.174883 7.87195 0 7.65625 0H1.5625C0.700938 0 0 0.700938 0 1.5625V7.65625C0 7.87199 0.174922 8.04688 0.390625 8.04688ZM0.78125 1.5625C0.78125 1.13172 1.13172 0.78125 1.5625 0.78125H7.26562V7.26562H0.78125V1.5625Z" fill="#CFF0D1"/>
<path d="M5.19531 2.46094H2.85156C2.63586 2.46094 2.46094 2.63582 2.46094 2.85156V5.19531C2.46094 5.41105 2.63586 5.58594 2.85156 5.58594H5.19531C5.41102 5.58594 5.58594 5.41105 5.58594 5.19531V2.85156C5.58594 2.63582 5.41102 2.46094 5.19531 2.46094ZM4.80469 4.80469H3.24219V3.24219H4.80469V4.80469Z" fill="#CFF0D1"/>
<path d="M5.58594 17.1484V14.8047C5.58594 14.5889 5.41102 14.4141 5.19531 14.4141H2.85156C2.63586 14.4141 2.46094 14.5889 2.46094 14.8047V17.1484C2.46094 17.3642 2.63586 17.5391 2.85156 17.5391H5.19531C5.41102 17.5391 5.58594 17.3642 5.58594 17.1484ZM4.80469 16.7578H3.24219V15.1953H4.80469V16.7578Z" fill="#CFF0D1"/>
<path d="M18.4375 0H12.3438C12.128 0 11.9531 0.174883 11.9531 0.390625V7.65625C11.9531 7.87199 12.128 8.04688 12.3438 8.04688H19.6094C19.8251 8.04688 20 7.87199 20 7.65625V1.5625C20 0.700938 19.2991 0 18.4375 0ZM19.2188 7.26562H12.7344V0.78125H18.4375C18.8683 0.78125 19.2188 1.13172 19.2188 1.5625V7.26562Z" fill="#CFF0D1"/>
<path d="M17.1484 2.46094H14.8047C14.589 2.46094 14.4141 2.63582 14.4141 2.85156V5.19531C14.4141 5.41105 14.589 5.58594 14.8047 5.58594H17.1484C17.3641 5.58594 17.5391 5.41105 17.5391 5.19531V2.85156C17.5391 2.63582 17.3641 2.46094 17.1484 2.46094ZM16.7578 4.80469H15.1953V3.24219H16.7578V4.80469Z" fill="#CFF0D1"/>
<path d="M19.6094 11.9531C19.3937 11.9531 19.2188 12.128 19.2188 12.3438V14.8047C19.2188 15.0204 19.3937 15.1953 19.6094 15.1953C19.8251 15.1953 20 15.0204 20 14.8047V12.3438C20 12.128 19.8251 11.9531 19.6094 11.9531Z" fill="#CFF0D1"/>
<path d="M19.6094 16.7578C19.3937 16.7578 19.2188 16.9327 19.2188 17.1484V18.4375C19.2188 18.8683 18.8683 19.2188 18.4375 19.2188H14.8047C14.589 19.2188 14.4141 19.3937 14.4141 19.6094C14.4141 19.8251 14.589 20 14.8047 20H18.4375C19.2991 20 20 19.2991 20 18.4375V17.1484C20 16.9327 19.8251 16.7578 19.6094 16.7578Z" fill="#CFF0D1"/>
<path d="M12.3438 16.7578C12.128 16.7578 11.9531 16.9327 11.9531 17.1484V19.6094C11.9531 19.8251 12.128 20 12.3438 20C12.5595 20 12.7344 19.8251 12.7344 19.6094V17.1484C12.7344 16.9327 12.5595 16.7578 12.3438 16.7578Z" fill="#CFF0D1"/>
<path d="M12.3438 11.9531C12.128 11.9531 11.9531 12.128 11.9531 12.3438V14.8047C11.9531 15.0204 12.128 15.1953 12.3438 15.1953C12.5595 15.1953 12.7344 15.0204 12.7344 14.8047V12.7344H17.1484C17.3641 12.7344 17.5391 12.5595 17.5391 12.3438V10C17.5391 9.78426 17.3641 9.60938 17.1484 9.60938H14.8047C14.589 9.60938 14.4141 9.78426 14.4141 10C14.4141 10.2157 14.589 10.3906 14.8047 10.3906H16.7578V11.9531H12.3438Z" fill="#CFF0D1"/>
<path d="M17.1484 14.4141H14.8047C14.589 14.4141 14.4141 14.5889 14.4141 14.8047V17.1484C14.4141 17.3642 14.589 17.5391 14.8047 17.5391H17.1484C17.3641 17.5391 17.5391 17.3642 17.5391 17.1484V14.8047C17.5391 14.5889 17.3641 14.4141 17.1484 14.4141ZM16.7578 16.7578H15.1953V15.1953H16.7578V16.7578Z" fill="#CFF0D1"/>
<path d="M12.3438 9.60938H10.3906V7.65625C10.3906 7.44051 10.2157 7.26562 10 7.26562C9.7843 7.26562 9.60938 7.44051 9.60938 7.65625V10C9.60938 10.2157 9.7843 10.3906 10 10.3906H12.3438C12.5595 10.3906 12.7344 10.2157 12.7344 10C12.7344 9.78426 12.5595 9.60938 12.3438 9.60938Z" fill="#CFF0D1"/>
<path d="M10 16.7578C9.7843 16.7578 9.60938 16.9327 9.60938 17.1484V18.4375C9.60938 18.6532 9.7843 18.8281 10 18.8281C10.2157 18.8281 10.3906 18.6532 10.3906 18.4375V17.1484C10.3906 16.9327 10.2157 16.7578 10 16.7578Z" fill="#CFF0D1"/>
<path d="M4.02344 20C4.23917 20 4.41406 19.8251 4.41406 19.6094C4.41406 19.3936 4.23917 19.2188 4.02344 19.2188C3.8077 19.2188 3.63281 19.3936 3.63281 19.6094C3.63281 19.8251 3.8077 20 4.02344 20Z" fill="#CFF0D1"/>
<path d="M1.5625 20H2.26562C2.48133 20 2.65625 19.8251 2.65625 19.6094C2.65625 19.3937 2.48133 19.2188 2.26562 19.2188H1.5625C1.13172 19.2188 0.78125 18.8683 0.78125 18.4375V12.7344H7.26562V19.2188H5.78125C5.56555 19.2188 5.39062 19.3937 5.39062 19.6094C5.39062 19.8251 5.56555 20 5.78125 20H7.65625C7.87195 20 8.04688 19.8251 8.04688 19.6094V13.9062H9.60938V14.8047C9.60938 15.0204 9.7843 15.1953 10 15.1953C10.2157 15.1953 10.3906 15.0204 10.3906 14.8047V13.5156C10.3906 13.2999 10.2157 13.125 10 13.125H8.04688V12.3438C8.04688 12.128 7.87195 11.9531 7.65625 11.9531H1.95312V10.3906H4.02344C4.23914 10.3906 4.41406 10.2157 4.41406 10C4.41406 9.78426 4.23914 9.60938 4.02344 9.60938H1.5625C1.3468 9.60938 1.17188 9.78426 1.17188 10V11.9531H0.390625C0.174922 11.9531 0 12.128 0 12.3438V18.4375C0 19.2991 0.700938 20 1.5625 20Z" fill="#CFF0D1"/>
</svg>

